<?xml version="1.0" encoding="UTF-8" standalone="no"?>
<!-- Created with Inkscape (http://www.inkscape.org/) -->

<svg
   width="284.82401mm"
   height="268.26901mm"
   viewBox="0 0 284.82399 268.269"
   version="1.1"
   id="svg1"
   inkscape:version="1.3.2 (091e20e, 2023-11-25, custom)"
   sodipodi:docname="Logo_fortunati.svg"
   inkscape:export-filename="Logo_fortunati.png"
   inkscape:export-xdpi="200"
   inkscape:export-ydpi="200"
   xmlns:inkscape="http://www.inkscape.org/namespaces/inkscape"
   xmlns:sodipodi="http://sodipodi.sourceforge.net/DTD/sodipodi-0.dtd"
   xmlns="http://www.w3.org/2000/svg"
   xmlns:svg="http://www.w3.org/2000/svg">
  <sodipodi:namedview
     id="namedview1"
     pagecolor="#505050"
     bordercolor="#eeeeee"
     borderopacity="1"
     inkscape:showpageshadow="0"
     inkscape:pageopacity="0"
     inkscape:pagecheckerboard="0"
     inkscape:deskcolor="#505050"
     inkscape:document-units="px"
     inkscape:zoom="0.46947952"
     inkscape:cx="364.23314"
     inkscape:cy="525.04953"
     inkscape:window-width="1366"
     inkscape:window-height="705"
     inkscape:window-x="-8"
     inkscape:window-y="-8"
     inkscape:window-maximized="1"
     inkscape:current-layer="layer9" />
  <defs
     id="defs1" />
  <g
     inkscape:groupmode="layer"
     id="layer9"
     inkscape:label="Letras"
     transform="matrix(0.26458334,0,0,0.26458334,262.6254,1.1796494)"
     sodipodi:insensitive="true"
     style="display:inline">
    <path
       style="fill:#f0d7b1;fill-opacity:1;stroke-width:3.79446"
       d="m 24.721796,1002.2748 -1.9056,-256.2807 -28.0388992,-0.27401 2.9945,249.69552 z"
       id="path62"
       inkscape:label="I" />
    <path
       style="fill:#f0d7b1;fill-opacity:1;stroke-width:3.79446"
       d="m -81.717304,977.85451 -2.7222,-186.58586 -33.483406,-1.09747 -1.0889,-45.54908 94.189106,1.372 v 48.01844 l -32.939,-1.64632 2.9945,192.62259 z"
       id="path61"
       inkscape:label="T" />
    <path
       id="path60"
       style="display:inline;fill:#f0d7b1;fill-opacity:1;stroke-width:3.79446"
       d="m -176.99531,735.84278 -53.3562,214.57453 31.3066,5.4838 4.9015,-22.2253 44.9115,7.411 5.7208,24.6955 29.9411,6.3095 -61.2476,-235.97391 z m 2.9971,105.09226 13.6122,57.89605 -25.5929,-3.57155 z"
       inkscape:label="A" />
    <path
       style="fill:#f0d7b1;fill-opacity:1;stroke-width:3.79446"
       d="m -323.72321,935.87261 -1.6333,-104.54283 69.9611,119.90873 8.1666,1.372 -5.1719,-208.53702 h -26.9501 l 2.4499,111.67699 -69.9614,-115.79293 h -7.3498 l 2.9942,191.79926 z"
       id="path59"
       inkscape:label="N" />
    <path
       style="fill:#f0d7b1;fill-opacity:1;stroke-width:3.79446"
       d="m -481.74111,742.10758 0.7699,123.78677 c 0,0 4.6101,35.23385 22.7139,47.34195 8.6557,5.78921 15.3993,13.96971 42.3479,11.25341 26.9486,-2.7163 33.4933,-46.56561 33.4933,-46.56561 l -1.1551,-135.42848 h -27.3334 l 1.9248,117.96635 c 0,0 1.9249,25.22305 -19.249,27.5515 -21.1739,2.32812 -25.0237,-26.77534 -25.0237,-26.77534 V 742.10758 Z"
       id="path58"
       sodipodi:nodetypes="ccssccccsccc"
       inkscape:label="U" />
    <path
       style="fill:#f0d7b1;fill-opacity:1;stroke-width:3.79446"
       d="M -560.27731,929.14631 V 778.58422 l -34.2633,0.77589 v -38.4167 l 93.9354,1.16417 v 35.31224 l -34.2635,0.77616 1.9251,148.23393 z"
       id="path57"
       inkscape:label="T" />
    <path
       id="path56"
       style="display:inline;fill:#f0d7b1;fill-opacity:1;stroke-width:3.79446"
       d="m -698.30451,741.6018 v 210.73511 l 27.2245,-4.9405 V 868.3687 l 12.5195,-2.19477 27.2246,73.54368 31.0334,-4.3974 -32.6647,-77.37575 c 0,0 25.5891,-3.28954 26.678,-57.0703 1.0889,-53.78036 -34.8425,-59.27236 -34.8425,-59.27236 z m 52.8174,40.0608 c 0,0 11.4273,2.7481 11.4273,21.40675 0,18.6587 -10.3421,23.59445 -10.3421,23.59445 l -26.6781,1.91963 v -46.09504 z"
       inkscape:label="R" />
    <path
       id="path55"
       style="display:inline;fill:#f0d7b1;fill-opacity:1;stroke-width:3.88861"
       d="m -792.21701,738.86376 c -37.7363,0 -68.8729,45.13704 -68.8729,121.27577 0,72.84578 20.2446,114.14968 59.0698,114.69818 38.8216,0.5486 78.5126,-47.3486 78.6762,-117.44385 0.1792,-76.69497 -31.1364,-118.5301 -68.8731,-118.5301 z m 1.3583,46.6456 c 20.447,8e-5 38.0479,22.9118 37.0203,69.68947 -0.9673,44.02942 -18.2065,71.89378 -41.3755,72.44258 -27.5168,0.6517 -36.5789,-31.69928 -36.474,-69.69695 0.1338,-48.42996 20.3824,-72.43502 40.8292,-72.4351 z"
       inkscape:label="O" />
    <path
       style="display:inline;fill:#f0d7b1;fill-opacity:1;stroke-width:3.79446"
       d="m -944.29571,1009.4723 -2.6949,-263.67832 66.9867,-1.74618 -0.1923,49.47616 -39.8456,3.10436 0.3852,51.8042 34.0707,-4.26856 v 48.89394 l -33.1083,5.43265 0.9623,103.22025 z"
       id="path54"
       inkscape:label="F" />
  </g>
  <g
     inkscape:label="Logo"
     inkscape:groupmode="layer"
     id="layer1"
     sodipodi:insensitive="true"
     style="display:inline">
    <g
       inkscape:groupmode="layer"
       id="layer3"
       inkscape:label="Rayos amarillos"
       style="display:inline"
       transform="matrix(0.26458332,0,0,0.26458332,262.6254,1.1796494)"
       sodipodi:insensitive="true">
      <path
         style="fill:#fcca04;fill-opacity:1;stroke-width:3.79446"
         d="m -730.51201,349.58134 -120.8014,-58.56551 c 0,0 -11.4892,22.83062 -13.1307,39.37455 -1.6412,16.5439 78.127,19.5219 78.127,19.5219 z"
         id="path11" />
      <path
         style="fill:#fcca04;fill-opacity:1;stroke-width:3.79446"
         d="m -679.55111,84.061364 52.6908,81.186526 c 0,0 -10.9094,6.78483 -14.8555,12.63436 -3.9457,5.84909 -19.9621,-10.06068 -19.9621,-10.06068 l -41.0848,-65.74462 c 0,0 16.4802,-13.570096 23.2116,-18.015586 z"
         id="path12" />
      <path
         style="fill:#fcca04;fill-opacity:1;stroke-width:3.79446"
         d="m -219.95721,103.4807 c 0,0 -10.9096,-12.166336 -23.4439,-18.951266 -11.6059,16.611746 -54.0835,80.484506 -54.0835,80.484506 0,0 11.1416,7.48698 16.2482,14.03808 5.1067,6.55109 47.3522,-44.6877 47.3522,-44.6877 z"
         id="path13" />
      <path
         style="fill:#fcca04;fill-opacity:1;stroke-width:3.79446"
         d="m -197.90601,350.08168 129.521906,-59.66162 c 0,0 12.3022,16.14377 15.0876,38.37056 2.7855,22.2269 -79.848506,20.1213 -79.848506,20.1213 z"
         id="path14" />
    </g>
    <g
       inkscape:groupmode="layer"
       id="layer2"
       inkscape:label="Rayos azules"
       style="display:inline"
       transform="matrix(0.26458332,0,0,0.26458332,262.6254,1.1796494)"
       sodipodi:insensitive="true">
      <path
         style="fill:#2197ef;fill-opacity:1;stroke-width:3.79446"
         d="m -873.13731,373.24452 109.7918,28.0758 c 0,0 -4.1781,-18.95131 7.892,-46.55928 -56.8689,-13.57013 -109.5597,-29.47987 -109.5597,-29.47987 0,0 -7.66,31.35156 -8.1241,47.96335 z"
         id="path1" />
      <path
         style="fill:#2197ef;fill-opacity:1;stroke-width:3.79446"
         d="m -812.32241,220.69814 70.5638,51.70661 -8.3562,0.23396 56.1725,39.07234 -12.3022,17.54748 -129.986,-70.65771 z"
         id="path2" />
      <path
         style="fill:#2197ef;fill-opacity:1;stroke-width:3.79446"
         d="m -756.11671,153.70094 118.5035,98.27104 -25.9328,32.75698 -126.3819,-94.30041 c 0,0 16.0849,-21.17625 33.8112,-36.72761 z"
         id="path3" />
      <path
         style="fill:#2197ef;fill-opacity:1;stroke-width:3.79446"
         d="m -702.28141,101.75304 94.2118,114.48408 -14.7717,13.23519 -105.0448,-105.21948 z"
         id="path4" />
      <path
         style="fill:#2197ef;fill-opacity:1;stroke-width:3.79446"
         d="m -601.50431,46.827034 68.9357,132.682566 c 0,0 -21.9938,3.63968 -32.498,17.53656 -85.0207,-125.734016 -85.0207,-126.064866 -85.0207,-126.064866 0,0 20.0242,-12.5734 48.583,-24.15426 z"
         id="path5" />
      <path
         style="fill:#2197ef;fill-opacity:1;stroke-width:3.79446"
         d="m -320.83811,45.172624 49.8962,24.48486 -84.3639,128.381246 c 0,0 -10.5045,-10.25718 -28.559,-17.86752 7.5502,-14.88949 63.0267,-134.998586 63.0267,-134.998586 z"
         id="path6" />
      <path
         style="fill:#2197ef;fill-opacity:1;stroke-width:3.79446"
         d="m -297.20291,232.11934 c 0,0 74.5159,-83.05069 103.7315,-106.87397 -7.8783,-6.28675 -26.2612,-21.83806 -26.2612,-21.83806 0,0 -85.6769,102.57259 -93.227,113.82235 15.7567,14.55879 15.7567,14.88968 15.7567,14.88968 z"
         id="path7" />
      <path
         style="fill:#2197ef;fill-opacity:1;stroke-width:3.79446"
         d="m -283.41581,250.97941 23.6349,32.09526 129.008,-94.30062 -34.1394,-37.3892 z"
         id="path8" />
      <path
         style="fill:#2197ef;fill-opacity:1;stroke-width:3.79446"
         d="m -213.82381,327.74343 131.305806,-69.15376 c 0,0 -19.039406,-33.08791 -25.604706,-40.36724 -6.8935,4.30144 -71.2332,51.94794 -71.2332,51.94794 l 6.5654,2.97797 -53.5074,37.38928 z"
         id="path9" />
      <path
         style="fill:#2197ef;fill-opacity:1;stroke-width:3.79446"
         d="m -161.95801,354.87552 c 0,0 14.7719,22.49968 8.8631,45.66115 22.6503,-4.9632 109.312106,-24.81581 109.312106,-24.81581 0,0 -2.6261,-35.07319 -9.1914,-49.63188 -13.4588,3.30871 -108.983806,28.78654 -108.983806,28.78654 z"
         id="path10" />
    </g>
    <g
       inkscape:groupmode="layer"
       id="layer4"
       inkscape:label="Sol"
       style="display:inline"
       transform="matrix(0.26458332,0,0,0.26458332,262.6254,1.1796494)"
       sodipodi:insensitive="true">
      <ellipse
         style="fill:#fcca04;fill-opacity:1;stroke-width:3.79446"
         id="path15"
         cx="-460.02228"
         cy="56.422573"
         rx="60.400673"
         ry="60.881737" />
    </g>
    <g
       inkscape:groupmode="layer"
       id="layer5"
       inkscape:label="Edificios izq"
       style="display:inline"
       transform="matrix(0.26458332,0,0,0.26458332,262.6254,1.1796494)"
       sodipodi:insensitive="true">
      <path
         id="path16"
         style="display:inline;fill:#f1cc54;fill-opacity:1;stroke-width:3.79446"
         d="m -871.83061,398.88385 v 155.51032 c 0,0 32.5511,4.37288 40.246,23.1033 2.5002,6.08561 5.1586,13.90221 5.1896,21.89799 0.039,10.69061 -3.3254,21.4371 -5.6546,26.29541 -6.9401,14.47544 -34.1265,29.48005 -34.1265,29.48005 l 100.7407,15.67744 V 450.68582 Z m 53.6146,81.28947 33.883,11.25797 v 35.31341 l -33.883,-10.08968 z m 1.5428,68.29798 32.724,8.53464 v 32.9845 l -32.724,-6.59244 z m 1.1517,58.98241 31.5723,7.76057 v 36.48174 l -31.5723,-6.21293 z" />
      <path
         id="path17"
         style="display:inline;fill:#f1cc54;fill-opacity:1;stroke-width:3.79446"
         d="m -600.86331,291.3586 -129.0578,89.60802 v 294.56201 h 129.0578 z m -31.0188,80.16585 v 60.14298 l -26.9515,16.68945 v -58.20832 z m -43.8929,46.56381 v 36.47411 l -36.5699,23.28201 -0.3838,-33.3715 z m 44.2766,43.46102 v 57.43465 l -26.9514,17.85025 v -57.04781 z m -44.0034,35.31368 v 52.56824 l -35.6915,20.77447 0.7455,-53.00746 z m 43.6197,51.60834 v 96.62495 l -26.5677,7.76043 v -88.09024 z m -45.0444,26.77913 v 44.2348 l -34.6505,19.7924 v -43.85536 z" />
      <path
         id="path18"
         style="display:inline;fill:#f1cc54;fill-opacity:1;stroke-width:3.79446"
         d="m -460.83651,146.16079 -95.4405,78.15711 v 451.18095 h 95.4405 z m -37.8468,88.7676 v 47.34505 l -31.9489,20.566 v -47.34513 z m -0.3839,99.72734 v 48.11898 l -31.1811,20.95302 V 354.4479 Z m 0.3839,90.41922 v 45.40316 l -31.565,18.23709 v -42.68719 z m 0.775,88.08295 v 50.44807 l -33.1078,18.23686 v -48.5058 z" />
    </g>
    <g
       inkscape:groupmode="layer"
       id="layer6"
       inkscape:label="Edificios der"
       style="display:inline"
       transform="matrix(0.26458332,0,0,0.26458332,262.6254,1.1796494)"
       sodipodi:insensitive="true">
      <path
         id="path22"
         style="display:inline;fill:#dc8915;fill-opacity:1;stroke-width:3.79446"
         d="m -460.84381,146.16079 -0.026,529.34539 h 95.7875 V 226.21526 Z m 49.9386,95.75437 27.3348,22.50792 v 42.6873 l -27.3348,-18.24454 z m 0.7677,96.23777 25.7996,20.179 v 46.56401 l -25.7996,-21.34749 z m -0.3839,89.63799 26.951,19.39793 v 43.85537 l -26.951,-17.46334 z m -0.3838,90.41182 26.9512,18.23705 V 581.456 l -26.9512,-17.46326 z" />
      <path
         id="path23"
         style="display:inline;fill:#dc8915;fill-opacity:1;stroke-width:3.79446"
         d="m -318.10751,291.58143 v 383.91742 l 129.508,-0.0431 V 383.01282 Z m 35.4922,92.2201 26.1318,19.47975 v 49.39125 l -26.1318,-15.91559 z m 41.6486,37.31508 33.4842,23.05119 v 35.12012 l -33.4842,-20.30565 z m -41.9217,44.45053 26.132,19.4798 v 53.23072 l -26.132,-19.20442 z m 42.7411,31.28081 32.3918,20.85627 v 50.76022 l -32.3918,-21.67453 z m -42.7411,51.3109 25.5856,16.73421 v 86.98159 l -25.5856,-5.75914 z m 42.4679,24.42041 31.8455,18.93644 v 48.84072 l -31.8455,-19.76254 z" />
      <path
         id="path24"
         style="display:inline;fill:#dc8915;fill-opacity:1;stroke-width:3.79446"
         d="m -45.449904,397.96856 c -29.5245,13.71658 -75.250706,34.86856 -109.886906,50.90921 v 222.9157 l 107.642806,-16.86814 c 0,0 -28.937,-13.57199 -36.2598,-36.90588 -7.3229,-23.3339 1.6535,-37.85805 7.559,-46.19176 5.9055,-8.33356 23.1496,-15.71478 30.9449,-16.66696 z m -52.6034,82.41309 v 35.12749 l -37.839506,9.32319 V 490.8136 Z m 1.3657,66.13288 v 35.11994 l -39.205206,9.33067 v -35.12745 z m -1.0925,60.90939 v 38.14099 l -37.566506,6.86011 V 614.8349 Z" />
    </g>
    <g
       inkscape:groupmode="layer"
       id="layer7"
       inkscape:label="Arbol der"
       style="display:inline"
       transform="matrix(0.26458332,0,0,0.26458332,262.6254,1.1796494)"
       sodipodi:insensitive="true">
      <path
         style="fill:#58594d;fill-opacity:1;stroke-width:3.79446"
         d="m 5.6839968,688.29141 v -37.71329 c 0,0 5.3031992,-12.29057 10.3141992,-15.42633 5.011,-3.13591 9.7297,-1.15752 13.9055,-4.27223 8.3517,-6.22965 19.0418,-12.45899 19.0418,-12.45899 0,0 8.1846,11.95386 2.8396,23.06577 -5.3451,11.11212 -15.033,18.18332 -25.055,18.68826 v 28.62206 z"
         id="path27"
         sodipodi:nodetypes="ccsscsccc" />
      <path
         style="fill:#58594d;fill-opacity:1;stroke-width:3.79446"
         d="m -51.119204,699.21236 h 101.1024 v -11.90521 h -101.1024 z"
         id="path26"
         sodipodi:nodetypes="ccccc" />
      <path
         style="display:inline;fill:#58d080;fill-opacity:1;stroke-width:3.79446"
         d="m -17.867704,561.85058 c 0,0 -0.9543,-27.45722 0,-28.45362 1.9159,-2.00015 26.5582008,-37.54499 59.9649,0 3.0066,4.88259 4.5099,9.42846 4.5099,9.42846 v 19.86677 c 0,0 33.22674,-0.8612 36.91427,25.25466 3.51262,24.87681 -18.13047,37.17241 -34.74287,34.34618 -1.0022,0.33677 -17.3714,24.91779 -35.411,24.91779 v -41.58584 c 0,0 -5.5120992,-8.08149 -11.5252992,0 v 42.42762 c 0,0 -21.7803008,-0.50847 -31.2291008,-25.03291 -3.7795,0.23812 -27.4016,-2.61913 -27.4016,-27.61988 0,-25.0007 27.999,-33.7643 38.9208,-33.54923 z"
         id="path25"
         sodipodi:nodetypes="cscccsccccccsc" />
    </g>
    <g
       inkscape:groupmode="layer"
       id="layer8"
       inkscape:label="Arbol izq"
       style="display:inline"
       transform="matrix(0.26458332,0,0,0.26458332,262.6254,1.1796494)"
       sodipodi:insensitive="true">
      <path
         style="display:inline;fill:#58594d;fill-opacity:1;stroke-width:3.79446"
         d="m -872.69431,687.06907 h -87.2837 v 13.45282 h 87.2986 c -0.027,-4.48195 -0.015,-8.96898 -0.015,-13.45282 z"
         id="path29"
         sodipodi:nodetypes="ccccc" />
      <path
         style="display:inline;fill:#58594d;fill-opacity:1;stroke-width:3.79446"
         d="m -917.10381,688.49774 v -40.23927 c 0,0 -1.8896,-16.66696 -8.0314,-24.28642 -6.1417,-7.61922 -35.6694,-3.33335 -35.6694,-3.33335 0,0 -4.9606,6.90498 -1.1811,20.23866 3.7793,13.33371 20.7872,19.04813 25.7481,19.52432 0,5.47626 0,29.28645 0,29.28645 z"
         id="path30" />
      <path
         style="display:inline;fill:#58d080;fill-opacity:1;stroke-width:3.79446"
         d="M -918.99341,649.68706 V 605.8764 c 0,0 3.7794,-8.57179 10.3936,0 v 40.71533 c 0,0 7.824,-1.82951 12.9921,-5.00016 4.9749,-3.05204 9.2126,-8.57159 10.8661,-12.14312 1.6536,-3.57158 1.6536,-8.09549 1.6536,-8.09549 0,0 14.19,5.10825 24.3306,-8.33348 11.8393,-15.69336 2.1261,-30.95343 -0.2362,-33.81052 -2.3622,-2.85732 -11.3385,-10.00044 -16.2991,-12.14332 -4.9606,-2.14284 -13.7009,-3.09536 -18.8978,-2.85717 v -27.38178 c 0,0 -2.5985,-16.19088 -23.1495,-18.81006 -20.5512,-2.61906 -29.5426,8.02643 -32.126,11.42899 -2.0203,2.66052 -7.7953,10.75729 -7.7953,17.14334 v 15.95277 c 0,0 -24.0943,-2.85547 -31.8899,15.00039 -5.9459,13.6197 -4.0467,27.30851 4.4883,37.6202 7.1964,8.69423 19.3701,8.57178 28.1103,7.85737 0.9449,2.38099 10.3936,27.61969 37.5591,26.66737 z"
         id="path28"
         sodipodi:nodetypes="ccccsscsssccssscsscc" />
    </g>
  </g>
</svg>
